# AST/ASF file generated using VICON BodyLanguage
# -----------------------------------------------
:version 1.10
:name VICON
:units
  mass 1.0
  length 0.45
  angle deg
:documentation
   .ast/.asf automatically generated from VICON data using
   VICON BodyBuilder and BodyLanguage model FoxedUp or BRILLIANT.MOD
:root
   order TX TY TZ RX RY RZ
   axis XYZ
   position 0 0 0  
   orientation 0 -0 0 
:bonedata
  begin
     id 1 
     name lhipjoint
     direction 0.432694 -0.693742 0.575759 
     length 2.19277 
     axis 0 -0 0  XYZ
  end
  begin
     id 2 
     name lfemur
     direction 0.34202 -0.939693 0  
     length 6.69022  
     axis 0 -0 20  XYZ
    dof rx ry rz
    limits (-160.0 20.0)
           (-70.0 70.0)
           (-60.0 70.0)
  end
  begin
     id 3 
     name ltibia
     direction 0.34202 -0.939693 0   
     length 6.50337   
     axis 0 -0 20   XYZ
    dof rx
    limits (-10.0 170.0)
  end
  begin
     id 4 
     name lfoot
     direction 0.158999 -0.435969 0.885805   
     length 2.70564   
     axis -90 -1.13533e-015 20   XYZ
    dof rx rz
    limits (-45.0 90.0)
           (-70.0 20.0)
  end
  begin
     id 5 
     name ltoes
     direction -0.00592919 0.00964381 0.999936   
     length 1.29929   
     axis -90 -1.13533e-015 20   XYZ
    dof rx
    limits (-90.0 20.0)
  end
  begin
     id 6 
     name rhipjoint
     direction -0.414359 -0.700339 0.581234   
     length 2.17212  
     axis 0 -0 0  XYZ 
  end
  begin
     id 7 
     name rfemur
     direction -0.34202 -0.939693 0   
     length 7.17659   
     axis 0 -0 -20   XYZ
    dof rx ry rz
    limits (-160.0 20.0)
           (-70.0 70.0)
           (-70.0 60.0)
  end
  begin
     id 8 
     name rtibia
     direction -0.34202 -0.939693 0   
     length 6.36669   
     axis 0 -0 -20   XYZ
    dof rx
    limits (-10.0 170.0)
 end
 begin
     id 9 
     name rfoot
     direction -0.137064 -0.37658 0.916188   
     length 2.22351  
     axis -90 1.13533e-015 -20   XYZ
    dof rx rz
    limits (-45.0 90.0)
           (-20.0 70.0)
  end
  begin
     id 10 
     name rtoes
     direction -0.000784077 -0.00289101 0.999996   
     length 1.09522   
     axis -90 1.13533e-015 -20   XYZ
    dof rx
    limits (-90.0 20.0)
  end
  begin
     id 11 
     name lowerback
     direction -0.0176242 0.984912 -0.172157   
     length 1.65301   
     axis 0 -0 0   XYZ
    dof rx ry rz
    limits (-20.0 45.0)
           (-30.0 30.0)
           (-30.0 30.0)
  end
  begin
     id 12 
     name upperback
     direction -0.00218128 0.998776 -0.0494072   
     length 1.67776   
     axis 0 -0 0   XYZ
    dof rx ry rz
    limits (-20.0 45.0)
           (-30.0 30.0)
           (-30.0 30.0)
  end
  begin
     id 13 
     name thorax
     direction 0.00544186 0.999658 0.0255711   
     length 1.72293   
     axis 0 -0 0   XYZ
    dof rx ry rz
    limits (-20.0 45.0)
           (-30.0 30.0)
           (-30.0 30.0)
  end
  begin
     id 14 
     name lowerneck
     direction -0.105325 0.983841 0.144785   
     length 2.14226   
     axis 0 -0 0   XYZ
    dof rx ry rz
    limits (-20.0 45.0)
           (-30.0 30.0)
           (-30.0 30.0)
  end
  begin
     id 15 
     name upperneck
     direction 0.0547957 0.988053 -0.144041   
     length 2.17508   
     axis 0 -0 0   XYZ
    dof rx ry rz
    limits (-20.0 45.0)
           (-30.0 30.0)
           (-30.0 30.0)
  end
  begin
     id 16
     name head
     direction 0.0247488 0.997534 -0.0656813  
     length 2.20048  
     axis 0 -0 0   XYZ
    dof rx ry rz
    limits (-20.0 45.0)
           (-30.0 30.0)
           (-30.0 30.0)
  end
  begin
     id 17 
     name lclavicle
     direction 0.820559 0.567247 -0.0701026  
     length 4.09615  
     axis 0 -0 0   XYZ
    dof ry rz
    limits (-20.0 10.0)
           (0.0 20.0)
  end
  begin
     id 18 
     name lhumerus
     direction 0.999977 -0.0067566 -9.96392e-005   
     length 4.59333   
     axis -180 -30 -90   XYZ
    dof rx ry rz
    limits (-60.0 90.0)
           (-90.0 90.0)
           (-90.0 90.0)
  end
  begin
     id 19
     name lradius
     direction 1 -4.48982e-011 -2.53425e-027   
     length 2.81151   
     axis -180 -30 -90   XYZ
    dof rx
    limits (-10.0 170.0)
  end
  begin
     id 20
     name lwrist
     direction 1 -4.48939e-011 -7.39254e-028   
     length 1.40576   
     axis 2.56395e-016 90 90   XYZ
    dof ry
    limits (-180.0 0.0)
 end
  begin
     id 21 
     name lhand
     direction 1 -4.48939e-011 -1.47851e-027   
     length 0.895651   
     axis 9.43423e-016 90 90   XYZ
    dof rx rz
    limits (-90.0 90.0)
           (-45.0 45.0)
  end
  begin
     id 22 
     name lfingers
     direction 1 -4.48978e-011 -2.95702e-027   
     length 0.722097   
     axis 1.88685e-015 90 90   XYZ
    dof rx
    limits (0.0 90.0)
  end
  begin
     id 23
     name lthumb
     direction 0.707107 -6.34931e-011 0.707107   
     length 1.03679   
     axis -90 45 -9.86935e-015   XYZ
    dof rx rz
    limits (-45.0 45.0)
           (-45.0 45.0)
  end
  begin
     id 24 
     name rclavicle
     direction -0.831414 0.553102 -0.0531864   
     length 4.24872  
     axis 0 -0 0   XYZ 
    dof ry rz
    limits (-10.0 20.0)
           (-20.0 0.0)
  end
  begin
     id 25 
     name rhumerus
     direction -0.999916 -0.000939607 0.0129331  
     length 4.74834   
     axis -180 30 90   XYZ
    dof rx ry rz
    limits (-90.0 60.0)
           (-90.0 90.0)
           (-90.0 90.0)
  end
  begin
     id 26 
     name rradius
     direction -1 -4.48956e-011 -1.31752e-027   
     length 2.79907   
     axis -180 30 90   XYZ
    dof rx
    limits (-10.0 170.0)
  end
  begin
     id 27 
     name rwrist
     direction -1 -4.4897e-011 -7.39254e-028   
     length 1.39954   
     axis 2.56395e-016 -90 -90   XYZ
    dof ry
    limits (-180.0 0.0)
  end
  begin
     id 28
     name rhand
     direction -0.999997 -0.00250697 0.000800838   
     length 0.953304   
     axis 9.43423e-016 -90 -90   XYZ
    dof rx rz
    limits (-90.0 90.0)
           (-45.0 45.0)
  end
  begin
     id 29
     name rfingers
     direction -1 -4.48954e-011 -2.95702e-027   
     length 0.763342   
     axis 1.88685e-015 -90 -90   XYZ
    dof rx
    limits (0.0 90.0)
  end
  begin
     id 30
     name rthumb
     direction -0.709701 -0.00217037 0.7045   
     length 1.10115   
     axis -90 -45 9.86935e-015   XYZ
    dof rx rz
    limits (-45.0 45.0)
           (-45.0 45.0)
  end
:hierarchy
  begin
    root lhipjoint rhipjoint lowerback
    lhipjoint lfemur
    lfemur ltibia
    ltibia lfoot
    lfoot ltoes
    rhipjoint rfemur
    rfemur rtibia
    rtibia rfoot
    rfoot rtoes
    lowerback upperback
    upperback thorax
    thorax lowerneck lclavicle rclavicle
    lowerneck upperneck
    upperneck head
    lclavicle lhumerus
    lhumerus lradius
    lradius lwrist
    lwrist lhand lthumb
    lhand lfingers
    rclavicle rhumerus
    rhumerus rradius
    rradius rwrist
    rwrist rhand rthumb
    rhand rfingers
  end

#!OML:ASF G:\ViconDB\ViconDB\414\test\team2\shane.ASF
:FULLY-SPECIFIED
:DEGREES
110
root 4.30108 16.6138 -6.65674 3.59145 -8.18803 -3.98231
lowerback 15.5335 7.14286 2.56993
upperback 4.90747 9.77103 0.620711
thorax -3.07076 4.82616 -2.47915
lowerneck -14.2756 -7.1735 -6.32047
upperneck 14.2406 -9.81171 8.07186
head 7.44332 -4.33895 2.58086
rclavicle -3.35946e-014 2.38542e-015
rhumerus 2.10151 17.8247 -92.6458
rradius 109.366
rwrist 41.424
rhand -53.1965 -36.4236
rfingers 7.12502
rthumb -25.6539 -64.7152
lclavicle -3.35946e-014 2.38542e-015
lhumerus -68.6675 -32.8708 74.649
lradius 50.4898
lwrist -8.97937
lhand -46.7124 7.64255
lfingers 7.12502
lthumb -19.4308 36.6917
rfemur 29.884 -8.22859 16.5318
rtibia 7.95139e-014
rfoot 1.36846 4.68968
rtoes -28.21
lfemur -43.8028 4.52732 -7.43575
ltibia 69.2738
lfoot -16.4432 -7.80053
ltoes -9.82801
111
root 4.30746 16.762 -6.09511 3.73032 -8.14024 -3.94091
lowerback 15.0392 7.2017 2.583
upperback 4.68464 9.8379 0.354854
thorax -2.99039 4.86393 -2.71878
lowerneck -14.6494 -7.39796 -6.80839
upperneck 15.2123 -10.1874 8.689
head 7.91853 -4.45792 2.79711
rclavicle 1.13307e-014 1.23246e-014
rhumerus 0.381457 18.2474 -91.8686
rradius 110.149
rwrist 40.8859
rhand -53.1195 -35.3999
rfingers 7.12502
rthumb -25.5803 -63.7021
lclavicle 1.13307e-014 1.23246e-014
lhumerus -69.8557 -32.1552 74.7662
lradius 51.782
lwrist -8.99354
lhand -46.9666 7.65841
lfingers 7.12502
lthumb -19.6752 36.6827
rfemur 30.6992 -7.47003 15.998
rtibia -1.27222e-014
rfoot 5.81821 4.75661
rtoes -28.2499
lfemur -44.1568 4.60495 -8.06042
ltibia 64.3971
lfoot -13.8593 -7.63307
ltoes -9.54467
112
root 4.31305 16.8882 -5.53173 3.66969 -8.10422 -3.83914
lowerback 14.4886 7.27914 2.53777
upperback 4.60465 9.91773 0.116886
thorax -2.74183 4.91401 -2.87846
lowerneck -14.7795 -7.6799 -7.36495
upperneck 15.7795 -10.6364 9.4126
head 8.24283 -4.61904 3.06029
rclavicle 5.36719e-014 -3.99557e-014
rhumerus -1.54481 18.7067 -90.8298
rradius 110.691
rwrist 40.7892
rhand -52.7345 -35.2662
rfingers 7.12502
rthumb -25.2114 -63.6208
lclavicle 5.36719e-014 -3.99557e-014
lhumerus -70.7346 -31.2388 74.8381
lradius 53.0822
lwrist -9.4004
lhand -46.8301 6.48737
lfingers 7.12502
lthumb -19.544 35.5251
rfemur 31.7314 -6.70054 15.4299
rtibia -9.22361e-014
rfoot 10.0155 4.98875
rtoes -26.5425
lfemur -43.9135 4.7952 -8.86961
ltibia 59.5449
lfoot -11.7102 -7.35516
ltoes -10.3093
113
root 4.31685 17.0069 -4.97042 3.64982 -8.09041 -3.8952
lowerback 14.0502 7.34109 2.67399
upperback 4.48298 10.0053 -0.141049
thorax -2.56025 4.96611 -3.17272
lowerneck -15.0298 -7.94059 -7.87903
upperneck 16.3711 -11.0826 10.1985
head 8.60781 -4.76363 3.33606
rclavicle -6.80341e-014 -1.56046e-014
rhumerus -3.72565 19.2997 -89.9349
rradius 111.137
rwrist 40.3212
rhand -52.5913 -35.0954
rfingers 7.12502
rthumb -25.0742 -63.4693
lclavicle 5.36719e-014 -3.99557e-014
lhumerus -70.7346 -31.2388 74.8381
lradius 53.0822
lwrist -9.4004
lhand -46.8301 6.48737
lfingers 7.12502
lthumb -19.544 35.5251
rfemur 32.7693 -5.93799 15.1289
rtibia 6.36111e-015
rfoot 13.623 5.36755
rtoes -23.0714
lfemur -43.6173 5.36472 -9.5314
ltibia 54.8523
lfoot -9.66717 -7.62679
ltoes -10.315
114
root 4.31055 17.1117 -4.40789 3.52436 -8.12089 -4.05061
lowerback 13.4627 7.38469 2.63147
upperback 4.50257 10.0427 -0.296522
thorax -2.20235 4.99841 -3.22575
lowerneck -15.3807 -8.16126 -8.31885
upperneck 16.8682 -11.4953 11.0347
head 8.96508 -4.87891 3.62126
rclavicle -1.2598e-013 3.06128e-014
rhumerus -5.94969 20.2834 -89.2081
rradius 111.298
rwrist 39.5685
rhand -52.4279 -34.6841
rfingers 7.12502
rthumb -24.9176 -63.0798
lclavicle -1.2598e-013 3.06128e-014
lhumerus -71.9138 -29.2279 74.5983
lradius 55.9342
lwrist -11.2615
lhand -46.1931 6.52115
lfingers 7.12502
lthumb -18.9314 35.6199
rfemur 34.0203 -5.15212 15.0213
rtibia 4.77083e-014
rfoot 16.9091 5.49613
rtoes -15.1797
lfemur -43.0599 6.19688 -10.0437
ltibia 50.5776
lfoot -8.1744 -8.08522
ltoes -10.3727
115
root 4.30683 17.1872 -3.85488 3.43645 -8.04307 -4.33313
lowerback 12.9494 7.33412 2.66598
upperback 4.43646 9.97172 -0.405292
thorax -1.97655 4.97175 -3.27658
lowerneck -15.4323 -8.33003 -8.54896
upperneck 17.0596 -11.828 11.6359
head 9.1334 -4.98347 3.8139
rclavicle 9.07079e-014 -4.28878e-014
rhumerus -8.41942 21.2084 -88.57
rradius 111.252
rwrist 39.1698
rhand -52.399 -33.5155
rfingers 7.12502
rthumb -24.8899 -61.915
lclavicle 9.07079e-014 -4.28878e-014
lhumerus -72.4489 -28.1747 74.8583
lradius 57.1678
lwrist -11.8278
lhand -46.0605 6.56939
lfingers 7.12502
lthumb -18.8039 35.6805
rfemur 35.3594 -4.49722 15.1373
rtibia -1.59028e-014
rfoot 18.3377 4.72816
rtoes -11.119
lfemur -42.6148 7.45931 -10.6678
ltibia 46.8718
lfoot -7.16817 -8.54689
ltoes -10.2687
116
root 4.30125 17.2455 -3.30037 3.45021 -7.98889 -4.56661
lowerback 12.1763 7.27352 2.63769
upperback 4.32961 9.87648 -0.525914
thorax -1.66391 4.93482 -3.27049
lowerneck -15.3659 -8.35558 -8.71629
upperneck 17.1876 -11.9733 12.2104
head 9.23459 -5.00526 4.02034
rclavicle 1.00386e-014 -1.37161e-014
rhumerus -11.029 22.153 -88.0544
rradius 110.83
rwrist 39.0469
rhand -52.2923 -32.541
rfingers 7.12502
rthumb -24.7876 -60.9546
lclavicle 1.00386e-014 -1.37161e-014
lhumerus -72.8005 -26.8469 74.9902
lradius 58.3502
lwrist -12.0313
lhand -46.0093 5.8882
lfingers 7.12502
lthumb -18.7546 35.0041
rfemur 36.6666 -3.86058 15.2942
rtibia 5.08889e-014
rfoot 18.0814 2.04384
rtoes -11.3638
lfemur -42.344 9.45909 -11.6874
ltibia 43.8916
lfoot -6.78231 -9.30235
ltoes -11.3541
117
root 4.29309 17.2868 -2.75161 3.1624 -8.0903 -4.80804
lowerback 11.7337 7.26042 2.67267
upperback 4.32721 9.85341 -0.689548
thorax -1.39469 4.93382 -3.38815
lowerneck -15.1255 -8.46098 -8.91585
upperneck 17.0464 -12.2639 13.0495
head 9.25312 -5.08646 4.30515
rclavicle 5.397e-014 -1.41137e-014
rhumerus -13.7013 22.9934 -87.6242
rradius 110.199
rwrist 39.4012
rhand -52.0991 -32.2156
rfingers 7.12502
rthumb -24.6024 -60.6545
lclavicle 5.397e-014 -1.41137e-014
lhumerus -72.548 -25.446 74.7531
lradius 59.2729
lwrist -12.8785
lhand -45.6862 5.52077
lfingers 7.12502
lthumb -18.4439 34.6664
rfemur 38.2304 -3.0525 15.46
rtibia -8.90555e-014
rfoot 17.9105 -1.34567
rtoes -11.8847
lfemur -41.6968 11.4562 -12.5067
ltibia 41.6055
lfoot -6.42673 -9.9015
ltoes -12.7725
118
root 4.28827 17.3062 -2.20313 2.77229 -7.79888 -4.98559
lowerback 11.2516 7.05708 2.6488
upperback 4.38553 9.57305 -0.816615
thorax -1.07665 4.8056 -3.40211
lowerneck -14.9948 -8.48193 -8.90753
upperneck 16.9712 -12.4194 13.5904
head 9.26434 -5.11501 4.47134
rclavicle 1.0138e-014 -1.11319e-014
rhumerus -16.5403 24.0219 -87.6069
rradius 109.355
rwrist 39.3699
rhand -51.9054 -30.9085
rfingers 7.12502
rthumb -24.4168 -59.3726
lclavicle 1.0138e-014 -1.11319e-014
lhumerus -72.1239 -23.8428 74.5141
lradius 60.318
lwrist -13.4428
lhand -45.2221 4.73726
lfingers 7.12502
lthumb -17.9974 33.9246
rfemur 39.8681 -2.64706 15.616
rtibia 3.18055e-014
rfoot 18.2217 -4.39324
rtoes -11.3681
lfemur -40.9892 13.4547 -13.5062
ltibia 40.0001
lfoot -6.25758 -10.9588
ltoes -13.1708
119
root 4.27678 17.3054 -1.65907 2.41266 -7.52326 -5.34496
lowerback 10.7543 6.89307 2.63616
upperback 4.45172 9.34817 -0.831595
thorax -0.755753 4.70318 -3.3146
lowerneck -15.0362 -8.4242 -8.64877
upperneck 17.0174 -12.4712 13.8797
head 9.30069 -5.09189 4.52158
rclavicle -1.47697e-013 4.45278e-014
rhumerus -19.3455 25.0228 -87.5494
rradius 108.196
rwrist 39.2805
rhand -51.9231 -30.2649
rfingers 7.12502
rthumb -24.4338 -58.7268
lclavicle -1.47697e-013 4.45278e-014
lhumerus -71.6531 -22.4262 74.4762
lradius 61.566
lwrist -14.2135
lhand -44.9593 4.48169
lfingers 7.12502
lthumb -17.7445 33.6921
rfemur 41.3927 -2.29713 16.0831
rtibia 7.63333e-014
rfoot 19.0052 -6.30289
rtoes -9.3118
lfemur -40.0024 15.1969 -14.115
ltibia 38.8733
lfoot -6.1961 -12.0241
ltoes -13.8893
